<svg xmlns="http://www.w3.org/2000/svg" width="42" height="37" viewBox="0 0 42 37"><g><g><path d="M41.144 13.847v14.292a3.577 3.577 0 0 1-3.574 3.574h-1.191v3.573c0 .954-1.065 1.516-1.853.99l-6.847-4.563H15.968a3.578 3.578 0 0 1-3.574-3.574v-4.92l-5.296 3.53c-.786.523-1.852-.038-1.852-.992v-3.573h-1.19A3.578 3.578 0 0 1 .48 18.611V4.318A3.577 3.577 0 0 1 4.055.745h21.602a3.577 3.577 0 0 1 3.574 3.573v5.956h8.339a3.577 3.577 0 0 1 3.574 3.573zm-27.559 5.955h12.072c.657 0 1.191-.534 1.191-1.191V4.318c0-.656-.534-1.19-1.191-1.19H4.055c-.657 0-1.191.534-1.191 1.19v14.293c0 .657.534 1.191 1.191 1.191h2.382c.658 0 1.192.533 1.192 1.191v2.539l5.289-3.525a1.21 1.21 0 0 1 .668-.204zm25.176-5.955c0-.657-.534-1.191-1.191-1.191h-8.34v5.955a3.578 3.578 0 0 1-3.573 3.573h-10.88v5.955c0 .657.534 1.191 1.19 1.191H28.04c.236 0 .466.07.661.2l5.296 3.53v-2.538c0-.658.533-1.192 1.191-1.192h2.383c.657 0 1.191-.534 1.191-1.19zm-21.602 0c0 .658-.533 1.191-1.191 1.191h-9.53a1.191 1.191 0 1 1 0-2.382h9.53c.658 0 1.191.533 1.191 1.19zm7.307-4.764c0 .657-.534 1.19-1.192 1.19H6.437a1.191 1.191 0 1 1 0-2.381h16.837c.658 0 1.192.533 1.192 1.19z"/><path fill="#02a3e5" d="M41.144 13.847v14.292a3.577 3.577 0 0 1-3.574 3.574h-1.191v3.573c0 .954-1.065 1.516-1.853.99l-6.847-4.563H15.968a3.578 3.578 0 0 1-3.574-3.574v-4.92l-5.296 3.53c-.786.523-1.852-.038-1.852-.992v-3.573h-1.19A3.578 3.578 0 0 1 .48 18.611V4.318A3.577 3.577 0 0 1 4.055.745h21.602a3.577 3.577 0 0 1 3.574 3.573v5.956h8.339a3.577 3.577 0 0 1 3.574 3.573zm-27.559 5.955h12.072c.657 0 1.191-.534 1.191-1.191V4.318c0-.656-.534-1.19-1.191-1.19H4.055c-.657 0-1.191.534-1.191 1.19v14.293c0 .657.534 1.191 1.191 1.191h2.382c.658 0 1.192.533 1.192 1.191v2.539l5.289-3.525a1.21 1.21 0 0 1 .668-.204zm25.176-5.955c0-.657-.534-1.191-1.191-1.191h-8.34v5.955a3.578 3.578 0 0 1-3.573 3.573h-10.88v5.955c0 .657.534 1.191 1.19 1.191H28.04c.236 0 .466.07.661.2l5.296 3.53v-2.538c0-.658.533-1.192 1.191-1.192h2.383c.657 0 1.191-.534 1.191-1.19zm-21.602 0c0 .658-.533 1.191-1.191 1.191h-9.53a1.191 1.191 0 1 1 0-2.382h9.53c.658 0 1.191.533 1.191 1.19zm7.307-4.764c0 .657-.534 1.19-1.192 1.19H6.437a1.191 1.191 0 1 1 0-2.381h16.837c.658 0 1.192.533 1.192 1.19z"/></g></g></svg>