<svg xmlns="http://www.w3.org/2000/svg" width="40" height="34" viewBox="0 0 40 34"><g><g><path fill="#19abe7" d="M13.67 27.912l-1.568 1.919a17.053 17.053 0 0 1-1.92-1.848l1.856-1.644a14.303 14.303 0 0 0 1.633 1.573zm-3.009-3.391l-2.087 1.327a16.491 16.491 0 0 1-1.248-2.362L9.6 22.51c.3.697.654 1.37 1.061 2.011zm26.458.757c-4.626 7.983-14.845 10.702-22.824 6.074l1.244-2.14a14.202 14.202 0 0 0 4.492 1.67c7.712 1.454 15.143-3.623 16.597-11.34 1.454-7.716-3.62-15.151-11.333-16.606-7.713-1.454-15.143 3.622-16.597 11.34l3.826-3.824 1.75 1.75-7.06 7.064-7.06-7.064 1.749-1.75 4.237 4.24C7.248 6.397 14.314.2 22.676.187c2.94 0 5.828.778 8.372 2.253 7.979 4.63 10.697 14.853 6.07 22.837zM23.295 5.758v12.376l4.453 3.342-1.484 1.98-5.443-4.084V5.757z"/></g></g></svg>