<svg xmlns="http://www.w3.org/2000/svg" width="24" height="24" viewBox="0 0 24 24"><g><g><path fill="#03abf0" d="M21.1 2.75v3.074a.933.933 0 0 1-.933.933h-3.061a.933.933 0 0 1 0-1.866h.854a9.176 9.176 0 0 0-6.009-2.22c-5.111 0-9.27 4.177-9.27 9.31a.933.933 0 0 1-1.866 0C.815 5.82 5.811.805 11.951.805c2.724 0 5.28.974 7.283 2.722v-.778a.933.933 0 0 1 1.866 0zm2.104 9.269c0 6.162-4.995 11.175-11.136 11.175-2.679 0-5.196-.94-7.185-2.634v.742a.933.933 0 0 1-1.865 0v-3.075c0-.02.004-.038.005-.057a1 1 0 0 1 .01-.1c.005-.03.013-.058.02-.086a.925.925 0 0 1 .065-.17.985.985 0 0 1 .043-.08 1.18 1.18 0 0 1 .11-.142.888.888 0 0 1 .072-.067c.015-.013.027-.028.043-.04.007-.006.015-.009.022-.014.027-.02.056-.036.085-.052.025-.014.05-.03.075-.041.027-.012.056-.02.084-.03.03-.01.06-.022.091-.029.026-.006.052-.008.078-.012a.895.895 0 0 1 .106-.01c.008 0 .015-.003.024-.003h3.062a.933.933 0 0 1 0 1.866h-.896a9.175 9.175 0 0 0 5.95 2.169c5.113 0 9.271-4.177 9.271-9.31a.933.933 0 0 1 1.866 0z"/></g></g></svg>