<svg xmlns="http://www.w3.org/2000/svg" width="35" height="34" viewBox="0 0 35 34"><g><g><path d="M34.363 7.25v23.776a2.96 2.96 0 0 1-2.956 2.955H3.69a2.96 2.96 0 0 1-2.956-2.955V7.249A2.96 2.96 0 0 1 3.69 4.293h.985v-.985A2.959 2.959 0 0 1 7.631.353a2.959 2.959 0 0 1 2.955 2.955v.985h4.073v-.985A2.959 2.959 0 0 1 17.614.353a2.959 2.959 0 0 1 2.956 2.955v.985h3.94v-.985A2.959 2.959 0 0 1 27.467.353a2.96 2.96 0 0 1 2.956 2.955v.985h.985a2.96 2.96 0 0 1 2.956 2.956zm-7.882 0a.986.986 0 0 0 1.97 0V3.307a.986.986 0 0 0-1.97 0zm-9.852 0c0 .542.442.984.985.984a.986.986 0 0 0 .985-.985V3.31a.986.986 0 0 0-1.97 0zm-9.984 0a.986.986 0 0 0 1.97 0V3.307a.986.986 0 0 0-1.97 0zm25.747 7.027H2.704v16.749c0 .543.442.985.986.985h27.717a.986.986 0 0 0 .985-.985zm0-7.028a.986.986 0 0 0-.985-.985h-.985v.985a2.96 2.96 0 0 1-2.956 2.956 2.959 2.959 0 0 1-2.955-2.956v-.985H20.57v.985a2.96 2.96 0 0 1-2.956 2.956 2.959 2.959 0 0 1-2.955-2.956v-.985h-4.073v.985a2.959 2.959 0 0 1-2.955 2.956 2.959 2.959 0 0 1-2.956-2.956v-.985H3.69a.986.986 0 0 0-.986.985v5.057h29.688zm-1.97 9.984v11.822a.985.985 0 0 1-.985.986H5.66a.985.985 0 0 1-.985-.986V17.233c0-.544.441-.986.985-.986h23.777c.544 0 .985.442.985.986zm-19.836 6.896h-3.94v3.941h3.94zm0-5.911h-3.94v3.94h3.94zm6.043 5.911h-4.072v3.941h4.072zm0-5.911h-4.072v3.94h4.072zm5.911 5.911H18.6v3.941h3.94zm0-5.911H18.6v3.94h3.94zm5.912 5.911H24.51v3.941h3.94zm0-5.911H24.51v3.94h3.94z"/><path fill="#02a3e5" d="M34.363 7.25v23.776a2.96 2.96 0 0 1-2.956 2.955H3.69a2.96 2.96 0 0 1-2.956-2.955V7.249A2.96 2.96 0 0 1 3.69 4.293h.985v-.985A2.959 2.959 0 0 1 7.631.353a2.959 2.959 0 0 1 2.955 2.955v.985h4.073v-.985A2.959 2.959 0 0 1 17.614.353a2.959 2.959 0 0 1 2.956 2.955v.985h3.94v-.985A2.959 2.959 0 0 1 27.467.353a2.96 2.96 0 0 1 2.956 2.955v.985h.985a2.96 2.96 0 0 1 2.956 2.956zm-7.882 0a.986.986 0 0 0 1.97 0V3.307a.986.986 0 0 0-1.97 0zm-9.852 0c0 .542.442.984.985.984a.986.986 0 0 0 .985-.985V3.31a.986.986 0 0 0-1.97 0zm-9.984 0a.986.986 0 0 0 1.97 0V3.307a.986.986 0 0 0-1.97 0zm25.747 7.027H2.704v16.749c0 .543.442.985.986.985h27.717a.986.986 0 0 0 .985-.985zm0-7.028a.986.986 0 0 0-.985-.985h-.985v.985a2.96 2.96 0 0 1-2.956 2.956 2.959 2.959 0 0 1-2.955-2.956v-.985H20.57v.985a2.96 2.96 0 0 1-2.956 2.956 2.959 2.959 0 0 1-2.955-2.956v-.985h-4.073v.985a2.959 2.959 0 0 1-2.955 2.956 2.959 2.959 0 0 1-2.956-2.956v-.985H3.69a.986.986 0 0 0-.986.985v5.057h29.688zm-1.97 9.984v11.822a.985.985 0 0 1-.985.986H5.66a.985.985 0 0 1-.985-.986V17.233c0-.544.441-.986.985-.986h23.777c.544 0 .985.442.985.986zm-19.836 6.896h-3.94v3.941h3.94zm0-5.911h-3.94v3.94h3.94zm6.043 5.911h-4.072v3.941h4.072zm0-5.911h-4.072v3.94h4.072zm5.911 5.911H18.6v3.941h3.94zm0-5.911H18.6v3.94h3.94zm5.912 5.911H24.51v3.941h3.94zm0-5.911H24.51v3.94h3.94z"/></g></g></svg>