<svg xmlns="http://www.w3.org/2000/svg" width="38" height="40" viewBox="0 0 38 40"><g><g><path fill="#17abe7" d="M37.727 23.275a3.4 3.4 0 0 1-1.467 4.514l-2.936 1.558a1.148 1.148 0 0 0-.596.821l-.575 3.275a3.398 3.398 0 0 1-3.838 2.79l-3.292-.465a1.148 1.148 0 0 0-.964.313l-2.39 2.312a3.401 3.401 0 0 1-4.745 0l-2.389-2.312a1.147 1.147 0 0 0-.964-.313l-3.292.465a3.396 3.396 0 0 1-3.839-2.79l-.574-3.275a1.148 1.148 0 0 0-.596-.82l-2.937-1.56a3.4 3.4 0 0 1-1.466-4.513l1.46-2.988a1.148 1.148 0 0 0 0-1.014l-1.46-2.988a3.4 3.4 0 0 1 1.466-4.514l2.937-1.558c.317-.169.534-.468.596-.821l.574-3.276a3.398 3.398 0 0 1 3.839-2.79l3.292.466c.355.05.706-.064.964-.313l2.39-2.312a3.397 3.397 0 0 1 4.744 0l2.39 2.312c.257.249.609.363.964.313l3.292-.466a3.399 3.399 0 0 1 3.838 2.79l.575 3.276c.062.353.279.652.596.82l2.936 1.559a3.4 3.4 0 0 1 1.467 4.514l-1.46 2.988a1.147 1.147 0 0 0 0 1.014zm-2.029.991l-1.46-2.987a3.393 3.393 0 0 1 0-2.998l1.46-2.988a1.15 1.15 0 0 0-.496-1.527l-2.937-1.559a3.391 3.391 0 0 1-1.761-2.425l-.575-3.275a1.15 1.15 0 0 0-1.298-.944l-3.292.465a3.39 3.39 0 0 1-2.85-.926l-2.39-2.312a1.15 1.15 0 0 0-1.605 0l-2.39 2.312a3.39 3.39 0 0 1-2.85.926l-3.291-.465a1.15 1.15 0 0 0-1.3.944L8.09 9.782a3.392 3.392 0 0 1-1.762 2.425l-2.937 1.559a1.15 1.15 0 0 0-.496 1.527l1.46 2.988a3.393 3.393 0 0 1 0 2.998l-1.46 2.987a1.15 1.15 0 0 0 .496 1.528l2.937 1.558a3.391 3.391 0 0 1 1.762 2.426l.574 3.275a1.15 1.15 0 0 0 1.299.944l3.291-.466a3.386 3.386 0 0 1 2.85.926l2.39 2.313a1.15 1.15 0 0 0 1.605 0l2.39-2.312a3.389 3.389 0 0 1 2.85-.927l3.292.466a1.15 1.15 0 0 0 1.299-.944l.574-3.275a3.392 3.392 0 0 1 1.761-2.426l2.937-1.558a1.15 1.15 0 0 0 .496-1.528zm-8.153-11.14l-14.9 14.905a1.125 1.125 0 0 1-1.597 0 1.13 1.13 0 0 1 0-1.597l14.9-14.905a1.129 1.129 0 1 1 1.597 1.597zm-8.625.631a4.145 4.145 0 0 1-4.139 4.14 4.145 4.145 0 0 1-4.139-4.14 4.145 4.145 0 0 1 4.14-4.14 4.145 4.145 0 0 1 4.138 4.14zm-2.257 0a1.884 1.884 0 0 0-1.882-1.882 1.884 1.884 0 0 0-1.881 1.882c0 1.038.844 1.882 1.881 1.882a1.884 1.884 0 0 0 1.882-1.882zM27.95 25.802a4.145 4.145 0 0 1-4.139 4.141 4.145 4.145 0 0 1-4.139-4.14 4.145 4.145 0 0 1 4.14-4.141 4.145 4.145 0 0 1 4.138 4.14zm-2.257 0a1.884 1.884 0 0 0-1.882-1.882 1.884 1.884 0 0 0-1.881 1.882c0 1.038.844 1.882 1.881 1.882a1.884 1.884 0 0 0 1.882-1.882z"/></g></g></svg>