<svg xmlns="http://www.w3.org/2000/svg" width="31" height="40" viewBox="0 0 31 40"><g><g><path d="M30.588 8.517v28.018a3.508 3.508 0 0 1-3.507 3.502H3.705a3.508 3.508 0 0 1-3.507-3.502V8.517a3.508 3.508 0 0 1 3.507-3.502h3.707a3.512 3.512 0 0 1 3.306-2.335h1.369A3.513 3.513 0 0 1 15.393.345c1.524 0 2.824.976 3.306 2.335h1.37c1.523 0 2.822.976 3.304 2.335h3.708a3.508 3.508 0 0 1 3.507 3.502zM9.548 7.349h11.69V6.182a1.17 1.17 0 0 0-1.17-1.167h-2.337a1.168 1.168 0 0 1-1.17-1.168 1.17 1.17 0 0 0-2.337 0c0 .645-.523 1.168-1.169 1.168h-2.337a1.17 1.17 0 0 0-1.17 1.167zM28.25 36.535V8.517a1.17 1.17 0 0 0-1.169-1.168h-3.506v1.168c0 .645-.524 1.167-1.17 1.167H8.38a1.168 1.168 0 0 1-1.169-1.167V7.349H3.705a1.17 1.17 0 0 0-1.169 1.168v28.018a1.17 1.17 0 0 0 1.169 1.168H27.08a1.17 1.17 0 0 0 1.169-1.168zM13.055 15.521c0 .645-.523 1.168-1.168 1.168H7.21a1.168 1.168 0 1 1 0-2.335h4.675c.646 0 1.17.523 1.17 1.167zm0 8.172c0 .645-.523 1.168-1.168 1.168H7.21a1.168 1.168 0 1 1 0-2.335h4.675c.646 0 1.17.523 1.17 1.167zm0 8.172c0 .645-.523 1.168-1.168 1.168H7.21a1.168 1.168 0 1 1 0-2.335h4.675c.646 0 1.17.523 1.17 1.167zM24.401 15.18l-3.506 3.502a1.165 1.165 0 0 1-.827.342c-.299 0-.598-.114-.826-.342l-2.338-2.335a1.166 1.166 0 0 1 0-1.651 1.17 1.17 0 0 1 1.653 0l1.511 1.51 2.68-2.677a1.17 1.17 0 0 1 1.653 0 1.167 1.167 0 0 1 0 1.65zm0 7.004l-3.506 3.502a1.166 1.166 0 0 1-1.653 0l-2.338-2.335a1.166 1.166 0 0 1 0-1.65 1.17 1.17 0 0 1 1.653 0l1.511 1.509 2.68-2.677a1.17 1.17 0 0 1 1.653 0 1.167 1.167 0 0 1 0 1.651zm-1.169 11.19a1.166 1.166 0 0 1-.826 1.994c-.3 0-.599-.114-.826-.342l-1.512-1.51-1.51 1.51a1.166 1.166 0 0 1-1.654 0 1.166 1.166 0 0 1 0-1.651l1.511-1.51-1.511-1.51a1.166 1.166 0 0 1 0-1.65 1.17 1.17 0 0 1 1.653 0l1.511 1.51 1.511-1.51a1.17 1.17 0 0 1 1.653 0 1.166 1.166 0 0 1 0 1.65l-1.51 1.51z"/><path fill="#02a3e5" d="M30.588 8.517v28.018a3.508 3.508 0 0 1-3.507 3.502H3.705a3.508 3.508 0 0 1-3.507-3.502V8.517a3.508 3.508 0 0 1 3.507-3.502h3.707a3.512 3.512 0 0 1 3.306-2.335h1.369A3.513 3.513 0 0 1 15.393.345c1.524 0 2.824.976 3.306 2.335h1.37c1.523 0 2.822.976 3.304 2.335h3.708a3.508 3.508 0 0 1 3.507 3.502zM9.548 7.349h11.69V6.182a1.17 1.17 0 0 0-1.17-1.167h-2.337a1.168 1.168 0 0 1-1.17-1.168 1.17 1.17 0 0 0-2.337 0c0 .645-.523 1.168-1.169 1.168h-2.337a1.17 1.17 0 0 0-1.17 1.167zM28.25 36.535V8.517a1.17 1.17 0 0 0-1.169-1.168h-3.506v1.168c0 .645-.524 1.167-1.17 1.167H8.38a1.168 1.168 0 0 1-1.169-1.167V7.349H3.705a1.17 1.17 0 0 0-1.169 1.168v28.018a1.17 1.17 0 0 0 1.169 1.168H27.08a1.17 1.17 0 0 0 1.169-1.168zM13.055 15.521c0 .645-.523 1.168-1.168 1.168H7.21a1.168 1.168 0 1 1 0-2.335h4.675c.646 0 1.17.523 1.17 1.167zm0 8.172c0 .645-.523 1.168-1.168 1.168H7.21a1.168 1.168 0 1 1 0-2.335h4.675c.646 0 1.17.523 1.17 1.167zm0 8.172c0 .645-.523 1.168-1.168 1.168H7.21a1.168 1.168 0 1 1 0-2.335h4.675c.646 0 1.17.523 1.17 1.167zM24.401 15.18l-3.506 3.502a1.165 1.165 0 0 1-.827.342c-.299 0-.598-.114-.826-.342l-2.338-2.335a1.166 1.166 0 0 1 0-1.651 1.17 1.17 0 0 1 1.653 0l1.511 1.51 2.68-2.677a1.17 1.17 0 0 1 1.653 0 1.167 1.167 0 0 1 0 1.65zm0 7.004l-3.506 3.502a1.166 1.166 0 0 1-1.653 0l-2.338-2.335a1.166 1.166 0 0 1 0-1.65 1.17 1.17 0 0 1 1.653 0l1.511 1.509 2.68-2.677a1.17 1.17 0 0 1 1.653 0 1.167 1.167 0 0 1 0 1.651zm-1.169 11.19a1.166 1.166 0 0 1-.826 1.994c-.3 0-.599-.114-.826-.342l-1.512-1.51-1.51 1.51a1.166 1.166 0 0 1-1.654 0 1.166 1.166 0 0 1 0-1.651l1.511-1.51-1.511-1.51a1.166 1.166 0 0 1 0-1.65 1.17 1.17 0 0 1 1.653 0l1.511 1.51 1.511-1.51a1.17 1.17 0 0 1 1.653 0 1.166 1.166 0 0 1 0 1.65l-1.51 1.51z"/></g></g></svg>