<svg xmlns="http://www.w3.org/2000/svg" width="33" height="33" viewBox="0 0 33 33"><g><g><path fill="#19abe7" d="M32.506 7.03v23.3c0 1.12-.91 2.027-2.026 2.027H2.113a2.028 2.028 0 0 1-2.026-2.026V7.03c0-.033.014-.06.018-.088a.977.977 0 0 1 .04-.2c.021-.067.045-.128.078-.189.014-.028.016-.058.034-.085L4.31.39c.188-.282.504-.452.843-.452H27.44c.338 0 .654.17.843.45l4.052 6.078c.019.027.02.059.035.085a1.022 1.022 0 0 1 .117.39c.004.03.018.056.018.089zM19.518 1.964l.677 4.052h9.406l-2.703-4.052zm-5.065 4.052h3.688l-.677-4.052h-2.336zm-.182 5.688l1.706-.571c.206-.067.431-.067.64 0l1.706.571V8.043h-4.052zM2.993 6.016h9.405l.677-4.052h-7.38zm27.49 24.315h-.003V8.043H20.35v5.065c0 .326-.157.632-.422.82a.997.997 0 0 1-.912.14l-2.72-.905-2.718.908c-.31.095-.649.05-.912-.142a1.005 1.005 0 0 1-.422-.82V8.042H2.114V30.33H30.48v1.013zm-4.351-14.48L16.001 25.984a1.019 1.019 0 0 1-.817.291 1.021 1.021 0 0 1-.743-.447l-4.053-6.079a1.013 1.013 0 1 1 1.686-1.122l3.366 5.047 9.257-9.256a1.014 1.014 0 1 1 1.435 1.435z"/></g></g></svg>