<svg xmlns="http://www.w3.org/2000/svg" width="38" height="38" viewBox="0 0 38 38"><g><g><path d="M36.836 16.802l-7.862 7.875v9.646a3.257 3.257 0 0 1-3.253 3.255H4.037a3.257 3.257 0 0 1-3.253-3.255V3.8A3.257 3.257 0 0 1 4.037.544h18.617a3.23 3.23 0 0 1 2.3.954l3.067 3.068c.614.615.953 1.433.953 2.302v8.598l3.262-3.267a3.255 3.255 0 0 1 4.6 4.603zM22.469 7.054h4.336c0-.232.027-.609-.317-.953L23.42 3.032c-.353-.353-.748-.318-.952-.318zm4.336 27.27v-7.477l-.131.132a1.083 1.083 0 0 1-.424.262l-4.6 1.534a1.084 1.084 0 0 1-1.372-1.372l1.534-4.603c.053-.16.143-.305.262-.425l1.532-1.533 3.2-3.204V9.224h-5.422A1.085 1.085 0 0 1 20.3 8.14V2.714H4.037c-.598 0-1.085.487-1.085 1.085v30.524c0 .599.487 1.085 1.085 1.085H25.72c.598 0 1.084-.486 1.084-1.085zm-3.017-10.595l-.767 2.302 2.3-.768.586-.586-1.533-1.534zm8.864-5.806l-1.533-1.535-5.212 5.22 1.533 1.535zm2.65-4.19a1.085 1.085 0 0 0-1.533 0l-1.118 1.12 1.534 1.535 1.117-1.12a1.085 1.085 0 0 0 0-1.535zM22.469 12.48c0 .6-.485 1.085-1.084 1.085H6.205a1.085 1.085 0 0 1 0-2.17h15.18c.598 0 1.083.486 1.083 1.085zm-4.337 4.34c0 .6-.485 1.085-1.084 1.085H6.205a1.085 1.085 0 0 1 0-2.17h10.842c.6 0 1.084.486 1.084 1.085zm0 4.34c0 .6-.485 1.085-1.084 1.085H6.205a1.085 1.085 0 0 1 0-2.17h10.842c.6 0 1.084.486 1.084 1.085zm0 4.34c0 .6-.485 1.085-1.084 1.085H6.205a1.085 1.085 0 0 1 0-2.17h10.842c.6 0 1.084.486 1.084 1.085zm4.337 6.654c0 .6-.485 1.085-1.084 1.085H14.88a1.084 1.084 0 0 1 0-2.17h6.505c.599 0 1.084.486 1.084 1.085z"/><path fill="#02a3e5" d="M36.836 16.802l-7.862 7.875v9.646a3.257 3.257 0 0 1-3.253 3.255H4.037a3.257 3.257 0 0 1-3.253-3.255V3.8A3.257 3.257 0 0 1 4.037.544h18.617a3.23 3.23 0 0 1 2.3.954l3.067 3.068c.614.615.953 1.433.953 2.302v8.598l3.262-3.267a3.255 3.255 0 0 1 4.6 4.603zM22.469 7.054h4.336c0-.232.027-.609-.317-.953L23.42 3.032c-.353-.353-.748-.318-.952-.318zm4.336 27.27v-7.477l-.131.132a1.083 1.083 0 0 1-.424.262l-4.6 1.534a1.084 1.084 0 0 1-1.372-1.372l1.534-4.603c.053-.16.143-.305.262-.425l1.532-1.533 3.2-3.204V9.224h-5.422A1.085 1.085 0 0 1 20.3 8.14V2.714H4.037c-.598 0-1.085.487-1.085 1.085v30.524c0 .599.487 1.085 1.085 1.085H25.72c.598 0 1.084-.486 1.084-1.085zm-3.017-10.595l-.767 2.302 2.3-.768.586-.586-1.533-1.534zm8.864-5.806l-1.533-1.535-5.212 5.22 1.533 1.535zm2.65-4.19a1.085 1.085 0 0 0-1.533 0l-1.118 1.12 1.534 1.535 1.117-1.12a1.085 1.085 0 0 0 0-1.535zM22.469 12.48c0 .6-.485 1.085-1.084 1.085H6.205a1.085 1.085 0 0 1 0-2.17h15.18c.598 0 1.083.486 1.083 1.085zm-4.337 4.34c0 .6-.485 1.085-1.084 1.085H6.205a1.085 1.085 0 0 1 0-2.17h10.842c.6 0 1.084.486 1.084 1.085zm0 4.34c0 .6-.485 1.085-1.084 1.085H6.205a1.085 1.085 0 0 1 0-2.17h10.842c.6 0 1.084.486 1.084 1.085zm0 4.34c0 .6-.485 1.085-1.084 1.085H6.205a1.085 1.085 0 0 1 0-2.17h10.842c.6 0 1.084.486 1.084 1.085zm4.337 6.654c0 .6-.485 1.085-1.084 1.085H14.88a1.084 1.084 0 0 1 0-2.17h6.505c.599 0 1.084.486 1.084 1.085z"/></g></g></svg>