<svg xmlns="http://www.w3.org/2000/svg" width="24" height="26" viewBox="0 0 24 26"><g><g><path fill="#02a3e5" d="M23.564 9.234v5.881a3.65 3.65 0 0 1-3.644 3.646h-.639v4.623c0 1.002-.817 1.82-1.82 1.82h-11.3a1.824 1.824 0 0 1-1.82-1.82V18.76H3.77a3.65 3.65 0 0 1-3.644-3.646v-5.88a3.65 3.65 0 0 1 3.644-3.647h.578V4.177A3.65 3.65 0 0 1 7.99.53h7.651a3.65 3.65 0 0 1 3.644 3.646v1.411h.634a3.65 3.65 0 0 1 3.644 3.646zM5.721 5.588h12.175V4.177a2.27 2.27 0 0 0-2.264-2.265H7.986A2.27 2.27 0 0 0 5.72 4.177zm12.18 10.181H5.721v7.625c0 .24.2.44.44.44h11.3c.24 0 .44-.2.44-.44zm4.283-6.53a2.27 2.27 0 0 0-2.264-2.265H3.77A2.27 2.27 0 0 0 1.504 9.24v5.881a2.27 2.27 0 0 0 2.264 2.266h.578v-1.617H3.33a.687.687 0 0 1-.69-.69c0-.383.306-.69.69-.69h16.866c.384 0 .69.307.69.69 0 .384-.306.69-.69.69h-.91v1.617h.634a2.27 2.27 0 0 0 2.264-2.266zM6.703 18.475c0-.384.306-.69.69-.69h8.786c.383 0 .69.306.69.69 0 .383-.307.69-.69.69H7.393a.69.69 0 0 1-.69-.69zm10.217 2.822c0 .384-.307.69-.69.69H7.444a.687.687 0 0 1-.69-.69c0-.383.307-.69.69-.69h8.791c.378 0 .685.307.685.69zM20.595 8.99c0 .383-.307.69-.69.69h-1.4a.687.687 0 0 1-.69-.69c0-.384.306-.69.69-.69h1.4c.383 0 .69.306.69.69z"/></g></g></svg>