<svg xmlns="http://www.w3.org/2000/svg" width="37" height="36" viewBox="0 0 37 36"><g><g><path fill="#02c4ee" d="M36.57 17.785a1.02 1.02 0 0 1-.76.34c-.242 0-.483-.083-.68-.257l-3.105-2.78v17.23c0 1.8-1.13 3.209-2.563 3.209h-5.443a2.406 2.406 0 0 1-2.404-2.404v-9.138a.37.37 0 0 0-.37-.369H15.75a.37.37 0 0 0-.37.37v9.137a2.406 2.406 0 0 1-2.404 2.404H7.533a2.565 2.565 0 0 1-2.563-2.562V14.991l-3.106 2.78a1.018 1.018 0 0 1-.678.255 1.02 1.02 0 0 1-.762-.338 1.022 1.022 0 0 1 .083-1.44L17.755.836a1.02 1.02 0 0 1 1.38.023.488.488 0 0 1 .097.075L36.48 16.347c.415.376.453 1.017.09 1.438zm-6.588-4.52L18.441 2.952 6.998 13.167v19.798a.53.53 0 0 0 .527.528h5.443a.37.37 0 0 0 .37-.37v-9.138a2.405 2.405 0 0 1 2.404-2.403h5.496a2.405 2.405 0 0 1 2.404 2.403v9.123c0 .204.166.37.37.37h5.442c.166 0 .528-.445.528-1.176z"/><path fill="#02a3e5" d="M36.57 17.785a1.02 1.02 0 0 1-.76.34c-.242 0-.483-.083-.68-.257l-3.105-2.78v17.23c0 1.8-1.13 3.209-2.563 3.209h-5.443a2.406 2.406 0 0 1-2.404-2.404v-9.138a.37.37 0 0 0-.37-.369H15.75a.37.37 0 0 0-.37.37v9.137a2.406 2.406 0 0 1-2.404 2.404H7.533a2.565 2.565 0 0 1-2.563-2.562V14.991l-3.106 2.78a1.018 1.018 0 0 1-.678.255 1.02 1.02 0 0 1-.762-.338 1.022 1.022 0 0 1 .083-1.44L17.755.836a1.02 1.02 0 0 1 1.38.023.488.488 0 0 1 .097.075L36.48 16.347c.415.376.453 1.017.09 1.438zm-6.588-4.52L18.441 2.952 6.998 13.167v19.798a.53.53 0 0 0 .527.528h5.443a.37.37 0 0 0 .37-.37v-9.138a2.405 2.405 0 0 1 2.404-2.403h5.496a2.405 2.405 0 0 1 2.404 2.403v9.123c0 .204.166.37.37.37h5.442c.166 0 .528-.445.528-1.176z"/></g></g></svg>